<svg width="31" height="7" viewBox="0 0 31 7" version="1.1" xmlns="http://www.w3.org/2000/svg" xmlns:xlink="http://www.w3.org/1999/xlink">
<title>Page 1</title>
<desc>Created using Figma</desc>
<g id="Canvas" transform="translate(-173 -747)">
<g id="Page 1">
<g id="Fill 1">
<use xlink:href="#path0_fill" transform="translate(190.257 747.282)" fill="#FFFFFF"/>
</g>
<g id="Group 5">
<mask id="mask0_outline" mask-type="alpha">
<g id="Clip 4">
<use xlink:href="#path1_fill" transform="translate(173.678 747.111)" fill="#FFFFFF"/>
</g>
</mask>
<g id="Fill 3" mask="url(#mask0_outline)">
<use xlink:href="#path2_fill" transform="translate(173.678 747.111)" fill="#FFFFFF"/>
</g>
</g>
<g id="Fill 6">
<use xlink:href="#path3_fill" transform="translate(178.188 747.118)" fill="#FFFFFF"/>
</g>
<g id="Fill 8">
<use xlink:href="#path4_fill" transform="translate(183.866 747.232)" fill="#FFFFFF"/>
</g>
<g id="Group 12">
<mask id="mask1_outline" mask-type="alpha">
<g id="Clip 11">
<use xlink:href="#path5_fill" transform="translate(185.449 748.717)" fill="#FFFFFF"/>
</g>
</mask>
<g id="Fill 10" mask="url(#mask1_outline)">
<use xlink:href="#path6_fill" transform="translate(185.449 748.717)" fill="#333333"/>
</g>
</g>
<g id="Fill 13">
<use xlink:href="#path7_fill" transform="translate(194.303 747.111)" fill="#FFFFFF"/>
</g>
<g id="Fill 15">
<use xlink:href="#path8_fill" transform="translate(199.382 747.282)" fill="#FFFFFF"/>
</g>
</g>
</g>
<defs>
<path id="path0_fill" fill-rule="evenodd" d="M 3.5754 0.474046L 3.5754 0.516783C 3.5754 0.778594 3.36419 0.990829 3.10364 0.990829L 1.10663 0.990829L 1.10663 2.01735L 2.85531 2.01735C 3.11586 2.01735 3.32707 2.22959 3.32707 2.4914C 3.32707 2.75323 3.11586 2.96546 2.85531 2.96546L 1.10663 2.96546L 1.10663 3.99912L 3.18168 3.99912C 3.44222 3.99912 3.65344 4.21138 3.65344 4.47319L 3.65344 4.50877C 3.65344 4.77058 3.44222 4.98281 3.18168 4.98281L 0.985294 4.98281C 0.441122 4.98281 0 4.53955 0 3.99274L 0 0.990055C 0 0.443262 0.441122 0 0.985294 0L 3.10364 0C 3.36419 0 3.5754 0.212236 3.5754 0.474046"/>
<path id="path1_fill" fill-rule="evenodd" d="M 2.18155e-17 5.15393L 2.18155e-17 0L 4.45926 0L 4.45926 5.15393L 2.18155e-17 5.15393Z"/>
<path id="path2_fill" fill-rule="evenodd" d="M 2.57513 4.11321C 2.96359 4.11321 3.30144 4.0029 3.58858 3.78224C 3.79152 3.62629 4.07501 3.63645 4.25296 3.82062L 4.275 3.84343C 4.47593 4.0514 4.45693 4.38867 4.23334 4.57181C 3.75957 4.95991 3.2246 5.15393 2.62833 5.15393C 1.86455 5.15393 1.23547 4.91154 0.741381 4.42684C 0.247108 3.94207 0 3.33024 0 2.59126C 0 1.85231 0.251826 1.23574 0.755533 0.74137C 1.25922 0.247212 1.87513 0 2.60353 0C 3.24509 0 3.80424 0.193671 4.28113 0.580975C 4.49681 0.756139 4.51878 1.07955 4.33535 1.28856L 4.3047 1.3235C 4.13455 1.51738 3.8405 1.55573 3.63761 1.39679C 3.3529 1.17372 3.02478 1.06218 2.65316 1.06218C 2.23702 1.06218 1.881 1.1988 1.58551 1.47203C 1.28993 1.74536 1.14213 2.11365 1.14213 2.57695C 1.14213 3.04027 1.28157 3.41224 1.56068 3.69261C 1.83972 3.973 2.17793 4.11321 2.57513 4.11321"/>
<path id="path3_fill" fill-rule="evenodd" d="M 4.07913 2.57698C 4.07913 2.13272 3.93729 1.7537 3.65346 1.44005C 3.3697 1.1264 3.02089 0.969482 2.60717 0.969482C 2.19323 0.969482 1.84454 1.1264 1.56078 1.44005C 1.27702 1.7537 1.13509 2.13272 1.13509 2.57698C 1.13509 3.02145 1.27702 3.3992 1.56078 3.71045C 1.84454 4.02176 2.19323 4.17732 2.60717 4.17732C 3.02089 4.17732 3.3697 4.02176 3.65346 3.71045C 3.93729 3.3992 4.07913 3.02145 4.07913 2.57698L 4.07913 2.57698ZM 4.45515 4.40898C 3.95375 4.90083 3.3366 5.1468 2.6036 5.1468C 1.8704 5.1468 1.25326 4.90083 0.752056 4.40898C 0.25066 3.91714 0 3.30531 0 2.5734C 0 1.84168 0.25066 1.22975 0.752056 0.73782C 1.25326 0.245965 1.8704 0 2.6036 0C 3.3366 0 3.95375 0.245965 4.45515 0.73782C 4.95635 1.22975 5.20711 1.84168 5.20711 2.5734C 5.20711 3.30531 4.95635 3.91714 4.45515 4.40898L 4.45515 4.40898Z"/>
<path id="path4_fill" fill-rule="evenodd" d="M 1.10672 2.28111L 1.10672 4.4767C 1.10672 4.78376 0.858996 5.03271 0.553419 5.03271L 0.553325 5.03271C 0.247728 5.03271 0 4.78376 0 4.4767L 0 2.24543C 0 1.52782 0.199765 0.974096 0.599465 0.584564C 0.999052 0.194823 1.50864 0 2.12827 0C 2.74774 0 3.25616 0.193558 3.65345 0.580994C 4.05075 0.968204 4.24935 1.52299 4.24935 2.24543L 4.24935 4.4767C 4.24935 4.78376 4.00162 5.03271 3.69604 5.03271C 3.39045 5.03271 3.14272 4.78376 3.14272 4.4767L 3.14272 2.28111C 3.14272 1.88189 3.0516 1.56699 2.86956 1.33659C 2.6875 1.10599 2.44043 0.990829 2.12827 0.990829C 1.81616 0.990829 1.56781 1.10599 1.38336 1.33659C 1.19889 1.56699 1.10672 1.88189 1.10672 2.28111"/>
<path id="path5_fill" fill-rule="evenodd" d="M 4.24935 5.03271L 0 5.03271L 2.13667e-15 0L 4.24935 0L 4.24935 5.03271L 4.24935 5.03271Z"/>
<path id="path6_fill" fill-rule="evenodd" d="M 3.14262 2.75158L 3.14262 0.55599C 3.14262 0.24893 3.39035 0 3.69593 0L 3.69602 0C 4.00162 0 4.24935 0.24893 4.24935 0.55599L 4.24935 2.78728C 4.24935 3.50487 4.04958 4.05859 3.64988 4.44815C 3.2503 4.83789 2.74071 5.03271 2.12108 5.03271C 1.50161 5.03271 0.993188 4.83913 0.595894 4.45171C 0.1986 4.0645 0 3.50972 0 2.78728L 0 0.55599C 0 0.24893 0.247728 0 0.553306 0C 0.858902 0 1.10663 0.24893 1.10663 0.55599L 1.10663 2.75158C 1.10663 3.15082 1.19775 3.4657 1.37979 3.69612C 1.56185 3.92672 1.80892 4.04186 2.12108 4.04186C 2.43321 4.04186 2.68154 3.92672 2.86599 3.69612C 3.05046 3.4657 3.14262 3.15082 3.14262 2.75158"/>
<path id="path7_fill" fill-rule="evenodd" d="M 2.57513 4.11321C 2.96357 4.11321 3.30142 4.0029 3.58858 3.78224C 3.7915 3.62629 4.07501 3.63645 4.25296 3.82062L 4.27498 3.84343C 4.47593 4.0514 4.45691 4.38867 4.23334 4.57181C 3.75957 4.95991 3.22459 5.15393 2.62833 5.15393C 1.86453 5.15393 1.23547 4.91154 0.741381 4.42684C 0.247108 3.94207 0 3.33024 0 2.59126C 0 1.85231 0.251807 1.23574 0.755533 0.74137C 1.25922 0.247212 1.87513 0 2.60351 0C 3.24509 0 3.80424 0.193671 4.28111 0.580975C 4.4968 0.756139 4.51878 1.07955 4.33535 1.28856L 4.30468 1.3235C 4.13455 1.51738 3.8405 1.55573 3.63761 1.39679C 3.3529 1.17372 3.02476 1.06218 2.65314 1.06218C 2.23702 1.06218 1.881 1.1988 1.58551 1.47203C 1.28991 1.74536 1.14213 2.11365 1.14213 2.57695C 1.14213 3.04027 1.28155 3.41224 1.56068 3.69261C 1.83972 3.973 2.17793 4.11321 2.57513 4.11321"/>
<path id="path8_fill" fill-rule="evenodd" d="M 2.51132 0.962312L 2.51132 4.42682C 2.51132 4.73388 2.26359 4.98281 1.95802 4.98281C 1.65242 4.98281 1.40469 4.73388 1.40469 4.42682L 1.40469 0.962312L 0.478824 0.962312C 0.214368 0.962312 0 0.746885 0 0.481147C 0 0.215427 0.214368 0 0.478824 0L 3.43709 0C 3.70155 0 3.91592 0.215427 3.91592 0.481147C 3.91592 0.746885 3.70155 0.962312 3.43709 0.962312L 2.51132 0.962312Z"/>
</defs>
</svg>
