<svg id="Layer_1" data-name="Layer 1" xmlns="http://www.w3.org/2000/svg" xmlns:xlink="http://www.w3.org/1999/xlink" viewBox="0 0 800 800"><defs><style>.cls-1{fill:url(#linear-gradient);}.cls-2{fill:url(#linear-gradient-2);}.cls-3{fill:url(#linear-gradient-3);}.cls-4{fill:url(#linear-gradient-4);}.cls-5{fill:url(#linear-gradient-5);}</style><linearGradient id="linear-gradient" x1="633.95" y1="-38.8" x2="175.62" y2="755.05" gradientUnits="userSpaceOnUse"><stop offset="0" stop-color="#000019"/><stop offset="0.4" stop-color="#01001b"/><stop offset="0.54" stop-color="#060022"/><stop offset="0.65" stop-color="#0f002d"/><stop offset="0.73" stop-color="#1b003e"/><stop offset="0.8" stop-color="#2b0054"/><stop offset="0.87" stop-color="#3f0070"/><stop offset="0.92" stop-color="#570090"/><stop offset="0.97" stop-color="#7100b4"/><stop offset="1" stop-color="#8200cb"/></linearGradient><linearGradient id="linear-gradient-2" x1="512.09" y1="337.03" x2="433.46" y2="200.83" gradientUnits="userSpaceOnUse"><stop offset="0" stop-color="#00005c"/><stop offset="0.14" stop-color="#160068"/><stop offset="0.42" stop-color="#4e0086"/><stop offset="0.83" stop-color="#a700b5"/><stop offset="1" stop-color="#d000cb"/></linearGradient><linearGradient id="linear-gradient-3" x1="595.81" y1="482.04" x2="433.46" y2="200.83" gradientUnits="userSpaceOnUse"><stop offset="0" stop-color="#00005c"/><stop offset="0.12" stop-color="#05005f"/><stop offset="0.26" stop-color="#130066"/><stop offset="0.41" stop-color="#290072"/><stop offset="0.56" stop-color="#490083"/><stop offset="0.72" stop-color="#730099"/><stop offset="0.88" stop-color="#a400b4"/><stop offset="1" stop-color="#d000cb"/></linearGradient><linearGradient id="linear-gradient-4" x1="459.8" y1="333.91" x2="548.95" y2="488.33" gradientUnits="userSpaceOnUse"><stop offset="0" stop-color="#a800cb"/><stop offset="0.46" stop-color="#540094"/><stop offset="0.83" stop-color="#18006c"/><stop offset="1" stop-color="#00005c"/></linearGradient><linearGradient id="linear-gradient-5" x1="548.54" y1="515.11" x2="356.5" y2="323.07" gradientUnits="userSpaceOnUse"><stop offset="0" stop-color="#00005c"/><stop offset="0.13" stop-color="#230073"/><stop offset="0.34" stop-color="#520092"/><stop offset="0.53" stop-color="#7700ab"/><stop offset="0.72" stop-color="#9200bd"/><stop offset="0.88" stop-color="#a200c7"/><stop offset="1" stop-color="#a800cb"/></linearGradient></defs><title>JamunaBankMobileApp</title><path class="cls-1" d="M740.3,22.86a1.7,1.7,0,0,1,1.67,2L643.71,515.1Q619.31,639.23,530.2,708.18t-218.54,69q-167.4,0-258.23-121.27a12.27,12.27,0,0,1,.74-15.56L190.72,488.58q32.86,41.38,70.55,62.6t67.36,21.21q26.5,0,44.56-15.91t24.4-46.68L453,231.71A12.31,12.31,0,0,0,440.94,217H218.49a12.31,12.31,0,0,1-12.06-14.74L240.71,32.72a12.3,12.3,0,0,1,12.06-9.86Z"/><path class="cls-2" d="M741.39,23.05S734.32,192.79,472.64,252.9s-282.9,236.93-282.9,236.93S741.39,309.48,741.39,23.05Z"/><path class="cls-3" d="M189.74,489.83s21.84,24,35.36,35.37C493.85,751.52,801.51,231.69,741.39,23.05,741.39,23.05,762.61,249.37,189.74,489.83Z"/><path class="cls-4" d="M189.74,489.83S585.8,504,734.32,185.72C734.32,185.72,614.09,702,189.74,489.83Z"/><path class="cls-5" d="M189.74,489.83s371.3,99,495.07-173.27C684.81,316.56,469.1,804.56,189.74,489.83Z"/></svg>